# File created by Blade
# Date/Time:  Wed Sep 24 19:53:44 2014
# Frame Rate: 120.000 fps
#------------------------------------------------------
:FULLY-SPECIFIED
:DEGREES
2504
root -6.261423 32.857019 -4.548209 8.632417 10.523386 -0.502976
Spine -14.992444 9.612627 1.066296
Head -3.578416 -6.727816 16.003712
LeftShoulder -13.464172 16.183592 21.467294
LeftArm 98.365442 -83.484402 -129.644628
LeftForeArm -46.801625 -0.000000 115.594225
LeftHand -17.904301 -0.000000 12.802488
LeftHandThumb1 -26.253704 0.000000 33.147579
RightShoulder -20.218598 12.192824 -15.583360
RightArm -11.333278 -11.412968 75.369938
RightForeArm -21.643329 -0.000000 20.015743
RightHand -7.812794 -0.000000 8.803092
RightHandThumb1 -24.326973 -0.000000 -32.862282
LeftUpLeg -4.576867 2.207205 5.204351
LeftLeg -1.640967 -0.000000 0.000000
LeftFoot -7.943524 2.110085 -18.744113
LeftToeBase 11.968588 -0.000000 -0.000000
RightUpLeg -3.687869 -11.830016 -2.329277
RightLeg 2.487458 -0.000000 -0.000000
RightFoot -7.468920 -8.306017 -12.887624
RightToeBase -0.068248 -0.000000 0.000000
2505
root -6.259144 32.856949 -4.547585 8.632140 10.479219 -0.498741
Spine -14.981676 9.601067 1.072335
Head -3.598928 -6.741410 15.979963
LeftShoulder -13.434637 16.148410 21.467577
LeftArm 98.016585 -83.524573 -129.298513
LeftForeArm -46.744685 -0.000000 115.592800
LeftHand -17.904648 -0.000000 12.716643
LeftHandThumb1 -26.253704 0.000000 33.147579
RightShoulder -20.234910 12.156218 -15.585671
RightArm -11.320217 -11.375215 75.344432
RightForeArm -21.664338 -0.000000 19.982059
RightHand -7.869246 -0.000000 8.889616
RightHandThumb1 -24.326973 -0.000000 -32.862282
LeftUpLeg -4.559977 2.212900 5.193125
LeftLeg -1.650718 -0.000000 0.000000
LeftFoot -7.943446 2.133518 -18.815117
LeftToeBase 11.932013 -0.000000 -0.000000
RightUpLeg -3.681447 -11.796207 -2.343677
RightLeg 2.465235 -0.000000 -0.000000
RightFoot -7.456844 -8.279467 -12.867331
RightToeBase -0.106932 -0.000000 0.000000
2506
root -6.258530 32.856767 -4.547821 8.636912 10.442145 -0.499852
Spine -14.974406 9.570130 1.080391
Head -3.613110 -6.747950 15.969912
LeftShoulder -13.483275 16.312885 21.402447
LeftArm 98.552482 -83.384986 -129.797261
LeftForeArm -46.514727 0.000000 115.581016
LeftHand -18.093397 0.000000 12.834913
LeftHandThumb1 -26.253704 0.000000 33.147579
RightShoulder -20.234590 12.141437 -15.587112
RightArm -11.334455 -11.384811 75.327848
RightForeArm -21.596497 0.000000 19.949469
RightHand -7.865569 -0.000000 8.882410
RightHandThumb1 -24.326973 -0.000000 -32.862282
LeftUpLeg -4.557039 2.222658 5.190662
LeftLeg -1.653974 -0.000000 0.000000
LeftFoot -7.949018 2.162396 -18.789440
LeftToeBase 11.898430 -0.000000 -0.000000
RightUpLeg -3.693291 -11.796641 -2.345562
RightLeg 2.466995 -0.000000 -0.000000
RightFoot -7.463652 -8.242812 -12.893138
RightToeBase -0.097288 -0.000000 0.000000
2507
root -6.257376 32.856460 -4.545062 8.635266 10.402929 -0.505763
Spine -14.971661 9.541016 1.091890
Head -3.627545 -6.742751 15.975029
LeftShoulder -13.442024 16.192649 21.457385
LeftArm 97.209434 -83.540351 -128.488665
LeftForeArm -46.448434 0.000000 115.585825
LeftHand -18.036682 -0.000000 12.899760
LeftHandThumb1 -26.253704 0.000000 33.147579
RightShoulder -20.230190 12.130098 -15.597409
RightArm -11.365465 -11.430201 75.328106
RightForeArm -21.511556 -0.000000 19.896960
RightHand -7.800573 0.000000 9.014388
RightHandThumb1 -24.326973 -0.000000 -32.862282
LeftUpLeg -4.539053 2.235675 5.191556
LeftLeg -1.663925 -0.000000 0.000000
LeftFoot -7.963381 2.181300 -18.771427
LeftToeBase 11.896094 -0.000000 -0.000000
RightUpLeg -3.690307 -11.799495 -2.346725
RightLeg 2.459946 -0.000000 -0.000000
RightFoot -7.473037 -8.199482 -12.909104
RightToeBase -0.096675 -0.000000 0.000000
